<svg xmlns="http://www.w3.org/2000/svg" viewBox="0 0 23 23"><defs><style>.cls-1{fill:#666;fill-rule:evenodd;}</style></defs><g id="Calque_2" data-name="Calque 2"><g id="Layer_1" data-name="Layer 1"><path class="cls-1" d="M4.82,13.93a.72.72,0,0,1-1-.26l0-.07a7.17,7.17,0,0,1,2.6-9.71l.06-.05a.72.72,0,1,1,.72,1.25h0A5.75,5.75,0,0,0,5.09,13h0a.71.71,0,0,1-.27,1Zm5.25-9.61a.72.72,0,1,1,.72-.72.72.72,0,0,1-.72.72ZM22.16,22.16a2.89,2.89,0,0,1-4.07,0l-1.91-1.91c-1.71-1.71-1.12-2.95,0-4.07h0a8.63,8.63,0,1,0-6.1,2.53.72.72,0,0,1,0,1.44A10.07,10.07,0,1,1,17.19,3a9.32,9.32,0,0,1,.67.74c.09.11.18.24.27.36s.22.28.31.43.18.29.27.44.17.27.24.4.15.31.22.46.14.29.2.44.12.3.17.45.12.32.17.48.08.3.11.46.09.33.13.49.05.36.08.54,0,.29.06.44c0,.32.05.65.05,1h0c0,.29,0,.58,0,.86l0,.27c0,.2-.05.4-.08.6l-.06.31c0,.2-.09.4-.15.61s-.12.4-.19.6-.06.19-.1.28-.14.36-.22.54l0,.09a9.71,9.71,0,0,1-.61,1.15h0a10.16,10.16,0,0,1-1.43,1.81,1.28,1.28,0,0,0,0,2l0,.05,1.92,1.91a1.44,1.44,0,0,0,2-2l-1.36-1.37,0,0a.66.66,0,0,1-.22-.15.71.71,0,0,1,1-1h0l1.55,1.55a2.89,2.89,0,0,1,0,4.07ZM13,15.05l.71,1.25h0L13,15.05Zm0,3.65a.72.72,0,1,1-.72.72A.72.72,0,0,1,13,18.7Z"/></g></g></svg>