<svg xmlns="http://www.w3.org/2000/svg" viewBox="0 0 21.56 23"><defs><style>.cls-1{fill:#666;fill-rule:evenodd;}</style></defs><g id="Calque_2" data-name="Calque 2"><g id="Layer_1" data-name="Layer 1"><path class="cls-1" d="M10.78,14.38a.72.72,0,1,1-.72.71.71.71,0,0,1,.72-.71Zm0-8.63A2.16,2.16,0,0,0,8.62,7.91a.72.72,0,0,1-1.43,0,3.6,3.6,0,1,1,5,3.31h0a1.09,1.09,0,0,0-.67,1,.49.49,0,0,1,0,.13.74.74,0,0,1-.71.59.72.72,0,0,1-.72-.72A2.53,2.53,0,0,1,11.6,9.9h0a2.16,2.16,0,0,0-.83-4.15Zm7.91,12.94h-5a2.13,2.13,0,0,0-1.29.43l-4.55,3.4,0,0A2.12,2.12,0,0,1,6.47,23a2.16,2.16,0,0,1-2.16-2.16V19.41a.72.72,0,0,0-.72-.72H2.88A2.88,2.88,0,0,1,0,15.81V2.88A2.88,2.88,0,0,1,2.88,0H15.09a.72.72,0,0,1,0,1.44H3.23A1.79,1.79,0,0,0,1.44,3.23V15.45a1.8,1.8,0,0,0,1.79,1.8H4a1.81,1.81,0,0,1,1.8,1.8v1.79a.72.72,0,0,0,.72.72.67.67,0,0,0,.41-.13h0L11.45,18h0a3.57,3.57,0,0,1,2.2-.75h4.67a1.8,1.8,0,0,0,1.79-1.8V3.59a.72.72,0,0,1,1.44,0V15.81a2.88,2.88,0,0,1-2.87,2.88ZM18,1.44a.72.72,0,1,1,.72-.72.72.72,0,0,1-.72.72Z"/></g></g></svg>