<svg xmlns="http://www.w3.org/2000/svg" viewBox="0 0 22 23.47"><defs><style>.cls-1{fill:#666;fill-rule:evenodd;}</style></defs><g id="Calque_2" data-name="Calque 2"><g id="Layer_1" data-name="Layer 1"><path class="cls-1" d="M19.8,19.07H2.2a2.2,2.2,0,0,1,0-4.4.74.74,0,0,0,.73-.74V9.53A8.05,8.05,0,0,1,5.3,3.83h0a.69.69,0,0,1,.52-.22.74.74,0,0,1,.51,1.26h0A6.58,6.58,0,0,0,4.4,9.53V14.3a1.83,1.83,0,0,1-1.83,1.83H2.2a.74.74,0,0,0,0,1.47H19.8a.74.74,0,0,0,0-1.47h-.37A1.83,1.83,0,0,1,17.6,14.3V9.53A6.59,6.59,0,0,0,11.87,3h0a1.84,1.84,0,0,1-1.6-1.82V.73a.73.73,0,0,1,1.46,0V1a.55.55,0,0,0,.46.54.2.2,0,0,0-.11,0,8.06,8.06,0,0,1,7,8v4.4a.74.74,0,0,0,.73.74,2.2,2.2,0,0,1,0,4.4ZM8.07,3.67a.74.74,0,1,1,.73-.74.74.74,0,0,1-.73.74ZM9.53,20.53a.74.74,0,0,1,.74.74.73.73,0,0,0,1.46,0,.74.74,0,1,1,1.47,0,2.2,2.2,0,0,1-4.39.14.61.61,0,0,1,0-.14.74.74,0,0,1,.73-.74Z"/></g></g></svg>