<svg xmlns="http://www.w3.org/2000/svg" viewBox="0 0 23 23.01"><defs><style>.cls-1{fill:#666;fill-rule:evenodd;}</style></defs><g id="Calque_2" data-name="Calque 2"><g id="Layer_1" data-name="Layer 1"><path class="cls-1" d="M22.28,11.51a.72.72,0,0,1-.72-.72c0-.18-1.2-1.09-1.48-1.37l-.78-.78h0a2.89,2.89,0,0,1-.63-1.8V3.61A.72.72,0,0,0,18,2.89H16.53a.72.72,0,0,0-.72.72v.24a.54.54,0,0,1-.54.54.51.51,0,0,1-.37-.15L12.52,1.86a1.44,1.44,0,0,0-2,0L1.85,10.5a1.43,1.43,0,0,0-.42,1h0A1.43,1.43,0,0,0,2.88,13c.68,0,1.44,1,1.44,2.16v5a1.43,1.43,0,0,0,1.43,1.43H7.91a.72.72,0,0,0,.72-.72V16.18a1.79,1.79,0,0,1,1.79-1.79h2.16a1.8,1.8,0,0,1,1.8,1.79v4.67a.72.72,0,0,0,.72.72h2.15a1.43,1.43,0,0,0,1.44-1.43v-5a.72.72,0,1,1,1.44,0v5A2.88,2.88,0,0,1,17.25,23H15.1a2.15,2.15,0,0,1-2.16-2.16V16.54a.72.72,0,0,0-.72-.72H10.78a.72.72,0,0,0-.71.72v4.31A2.16,2.16,0,0,1,7.91,23H5.75a2.88,2.88,0,0,1-2.87-2.87v-5a.91.91,0,0,0-.72-.81h0A2.87,2.87,0,0,1,0,11.51v.16A2.87,2.87,0,0,1,.83,9.48L9.47.84a2.87,2.87,0,0,1,4.06,0L14.8,2.11a1.78,1.78,0,0,1,1.37-.66h2.16a1.81,1.81,0,0,1,1.8,1.8V6.84a1.43,1.43,0,0,0,.4,1l1.64,1.64c.57.56.83.84.83,1.31a.72.72,0,0,1-.72.72ZM20.84,13a.72.72,0,1,1-.71.72.72.72,0,0,1,.71-.72Z"/></g></g></svg>