<svg xmlns="http://www.w3.org/2000/svg" viewBox="0 0 23 18.68"><defs><style>.cls-1{fill:#666;fill-rule:evenodd;}</style></defs><g id="Calque_2" data-name="Calque 2"><g id="Layer_1" data-name="Layer 1"><path class="cls-1" d="M3.68,15a.71.71,0,0,1,0-1l2-2a.72.72,0,0,1,1,1l-2,2a.72.72,0,0,1-1,0ZM18.3,15l-2-2a.72.72,0,1,1,1-1l2,2a.7.7,0,0,1,0,1,.71.71,0,0,1-1,0ZM22.17,4.19l-8.64,7.92a2.89,2.89,0,0,1-4.07,0L4.4,7h0L2.69,5.33h0A.71.71,0,0,0,2.16,5a.72.72,0,0,0-.72.72V15.81a1.44,1.44,0,0,0,1.43,1.44H20.12a1.45,1.45,0,0,0,1.44-1.44V7.19a.72.72,0,1,1,1.43,0v8.62a2.86,2.86,0,0,1-2.87,2.87H2.87A2.87,2.87,0,0,1,0,15.81V5.75A2.16,2.16,0,0,1,2.16,3.59a2.11,2.11,0,0,1,1.43.62h0l6.89,6.89a1.44,1.44,0,0,0,2,0l8.64-7.92a1.43,1.43,0,0,0,.42-1h0c0-.8-.65-.72-1.44-.72H5A.72.72,0,0,1,5,0H20.12c1.32,0,2.43.39,2.77,1.44h0a2.89,2.89,0,0,1-.74,2.75Zm-20-2.75A.72.72,0,0,1,2.16,0a.71.71,0,0,1,.71.72.71.71,0,0,1-.71.72Z"/></g></g></svg>