<?xml version="1.0" standalone="no"?>
<!DOCTYPE svg PUBLIC "-//W3C//DTD SVG 20010904//EN"
 "http://www.w3.org/TR/2001/REC-SVG-20010904/DTD/svg10.dtd">
<svg version="1.0" xmlns="http://www.w3.org/2000/svg"
 width="23.000000pt" height="24.000000pt" viewBox="0 0 23.000000 24.000000"
 preserveAspectRatio="xMidYMid meet">
<metadata>
Created by potrace 1.16, written by Peter Selinger 2001-2019
</metadata>
<g transform="translate(0.000000,24.000000) scale(0.100000,-0.100000)"
fill="#000000" stroke="none">
<path d="M52 187 c-50 -51 -63 -79 -42 -92 6 -3 10 -19 10 -34 0 -39 21 -64
51 -59 19 2 25 10 27 36 2 19 9 32 17 32 8 0 15 -13 17 -32 3 -29 6 -33 33
-33 28 0 30 3 33 40 2 22 9 43 15 47 6 4 8 10 5 14 -13 12 -38 -24 -38 -55 0
-21 -5 -31 -15 -31 -10 0 -15 10 -15 34 0 36 -18 51 -51 41 -14 -5 -19 -16
-19 -41 0 -24 -5 -34 -15 -34 -11 0 -15 11 -15 40 0 27 -5 42 -17 49 -16 9
-12 16 31 60 45 46 51 49 66 36 10 -9 25 -13 34 -9 12 5 16 0 16 -18 0 -25 35
-66 46 -55 3 3 -1 16 -10 29 -9 12 -16 33 -16 45 0 19 -5 23 -29 23 -17 0 -33
5 -36 10 -12 19 -31 9 -83 -43z"/>
</g>
</svg>
