<?xml version="1.0" standalone="no"?>
<!DOCTYPE svg PUBLIC "-//W3C//DTD SVG 20010904//EN"
 "http://www.w3.org/TR/2001/REC-SVG-20010904/DTD/svg10.dtd">
<svg version="1.0" xmlns="http://www.w3.org/2000/svg"
 width="22.000000pt" height="23.000000pt" viewBox="0 0 22.000000 23.000000"
 preserveAspectRatio="xMidYMid meet">
<metadata>
Created by potrace 1.16, written by Peter Selinger 2001-2019
</metadata>
<g transform="translate(0.000000,23.000000) scale(0.100000,-0.100000)"
fill="#000000" stroke="none">
<path d="M7 223 c-4 -3 -7 -44 -7 -91 0 -74 2 -84 19 -89 11 -3 21 -13 24 -24
7 -24 38 -24 69 0 13 11 42 21 64 23 l39 3 3 78 c2 46 -1 77 -7 77 -6 0 -11
-30 -13 -67 l-3 -68 -42 -6 c-23 -3 -51 -14 -63 -24 -18 -16 -20 -16 -20 -1 0
9 -11 21 -25 26 -23 9 -25 14 -25 74 0 36 4 67 8 70 5 3 43 6 85 7 43 1 77 6
77 10 0 10 -173 12 -183 2z"/>
</g>
</svg>
