<?xml version="1.0" standalone="no"?>
<!DOCTYPE svg PUBLIC "-//W3C//DTD SVG 20010904//EN"
 "http://www.w3.org/TR/2001/REC-SVG-20010904/DTD/svg10.dtd">
<svg version="1.0" xmlns="http://www.w3.org/2000/svg"
 width="22.000000pt" height="24.000000pt" viewBox="0 0 22.000000 24.000000"
 preserveAspectRatio="xMidYMid meet">

<g transform="translate(0.000000,24.000000) scale(0.100000,-0.100000)"
fill="#000000" stroke="none">
<path d="M110 221 c0 -6 7 -11 15 -11 8 0 25 -10 36 -21 12 -12 19 -15 17 -8
-6 18 -68 54 -68 40z"/>
<path d="M45 189 c-4 -6 -5 -12 -2 -15 2 -3 7 2 10 11 7 17 1 20 -8 4z"/>
<path d="M32 131 c-1 -19 -9 -39 -19 -46 -33 -24 -4 -35 97 -35 100 0 130 11
97 35 -8 6 -17 27 -20 46 l-4 34 -1 -38 c-1 -25 3 -40 13 -43 38 -15 6 -24
-85 -24 -55 0 -100 3 -100 6 0 4 7 12 16 18 11 8 14 23 11 46 l-4 35 -1 -34z"/>
<path d="M100 16 c7 -7 13 -7 20 0 6 6 3 10 -10 10 -13 0 -16 -4 -10 -10z"/>
</g>
</svg>
